<svg width="24" height="24" viewBox="0 0 24 24" fill="none" xmlns="http://www.w3.org/2000/svg">
<path d="M12.5601 17.3614C11.7101 18.2114 10.8101 19.0114 9.96007 19.8614C9.66007 20.1614 9.31007 20.3114 8.91007 20.3114C8.61007 20.3114 8.46007 20.1614 8.36007 19.9114C7.71007 17.9114 7.06007 15.8614 6.41007 13.8614C6.36007 13.6614 6.26007 13.5614 6.06007 13.5114C4.51007 13.0114 2.96007 12.5114 1.46007 12.0114C1.21007 11.9114 1.01007 11.8614 0.76007 11.7114C0.46007 11.5114 0.41007 11.1614 0.66007 10.9114C0.91007 10.6614 1.21007 10.4614 1.56007 10.3614C3.46007 9.61135 5.31007 8.91136 7.21007 8.16136C12.0101 6.31136 16.8101 4.46136 21.6101 2.61136C22.5101 2.26136 23.2101 2.76136 23.1101 3.76136C23.0601 4.41136 22.9101 5.01135 22.7601 5.61136C21.7101 10.5114 20.6601 15.4114 19.6601 20.3114C19.4101 21.4614 18.6101 21.7614 17.6601 21.0614C16.0601 19.8614 14.4601 18.7114 12.8601 17.5114C12.7101 17.4614 12.6601 17.4114 12.5601 17.3614ZM8.96007 18.8614H9.01007C9.01007 18.8114 9.01007 18.7614 9.06007 18.7114C9.16007 17.6114 9.26007 16.5114 9.36007 15.3614C9.36007 15.1114 9.46007 14.9614 9.66007 14.7614C11.1601 13.4614 12.6101 12.1114 14.0601 10.7614C15.7101 9.31136 17.3101 7.81136 18.9601 6.36136C19.0101 6.31136 19.0601 6.11136 19.1601 6.01136C19.0101 6.01136 18.8601 5.91136 18.7101 5.96136C18.5101 6.01136 18.3101 6.11136 18.1601 6.21136C14.5601 8.51136 10.9601 10.7614 7.36007 13.0114C7.16007 13.1614 7.11007 13.2614 7.21007 13.4614C7.46007 14.2114 7.71007 15.0114 7.96007 15.7614C8.26007 16.8114 8.61007 17.8114 8.96007 18.8614Z" fill="white"/>
</svg>
